<svg width="45" height="45" viewBox="0 0 45 45" fill="none" xmlns="http://www.w3.org/2000/svg">
<path d="M7.98623 19.0249C7.4754 22.9325 7.1651 26.9031 7.06599 30.9262C12.496 33.1932 17.6605 35.9691 22.5 39.1942C27.3395 35.9691 32.504 33.1932 37.934 30.9262C37.8349 26.9032 37.5246 22.9326 37.0138 19.025M7.98623 19.0249C6.34429 18.473 4.68243 17.9645 3.00201 17.5007C9.08711 13.2354 15.6139 9.55723 22.5001 6.54852C29.3863 9.55723 35.9131 13.2354 41.9982 17.5007C40.3177 17.9645 38.6558 18.4731 37.0138 19.025M7.98623 19.0249C13.0248 20.7185 17.8759 22.8204 22.5001 25.2912C27.1243 22.8204 31.9753 20.7186 37.0138 19.025M12.6562 28.125C13.4329 28.125 14.0625 27.4954 14.0625 26.7187C14.0625 25.9421 13.4329 25.3125 12.6562 25.3125C11.8796 25.3125 11.25 25.9421 11.25 26.7187C11.25 27.4954 11.8796 28.125 12.6562 28.125ZM12.6562 28.125V21.2334C15.8278 19.2628 19.1131 17.458 22.5 15.8312M9.3612 37.4862C11.5579 35.2895 12.6562 32.4104 12.6562 29.5312V26.7187" stroke="#0F172A" stroke-width="1.5" stroke-linecap="round" stroke-linejoin="round"/>
</svg>
