<svg width="26" height="26" viewBox="0 0 26 26" fill="none" xmlns="http://www.w3.org/2000/svg">
<path d="M12.6747 3.03906C12.8821 2.94845 13.1179 2.94845 13.3253 3.03906C17.354 4.79929 21.1722 6.95107 24.7319 9.44619C24.9895 9.62675 25.1197 9.9398 25.0662 10.2498C25.0126 10.5598 24.7849 10.811 24.4817 10.8947C23.7397 11.0995 23.0041 11.3201 22.2752 11.5552C19.3165 12.5094 16.4685 13.71 13.7551 15.1328L13.7516 15.1347C13.6286 15.1992 13.5058 15.2642 13.3834 15.3296C13.1441 15.4575 12.8568 15.4575 12.6176 15.3296C12.4939 15.2636 12.37 15.198 12.2458 15.1328C10.9041 14.4293 9.52951 13.7801 8.12488 13.1881V12.9458C8.12488 12.8035 8.19791 12.6772 8.31092 12.6088C9.94147 11.6209 11.6234 10.7095 13.3517 9.87931C13.7562 9.68502 13.9266 9.19961 13.7323 8.79512C13.538 8.39063 13.0526 8.22023 12.6481 8.41452C10.8722 9.26751 9.14414 10.204 7.46891 11.2189C6.97775 11.5165 6.64756 12.0035 6.53895 12.5491C5.61279 12.1928 4.67445 11.861 3.72469 11.5547C2.9958 11.3196 2.26019 11.0995 1.51822 10.8947C1.21497 10.811 0.987294 10.5598 0.933754 10.2498C0.880215 9.93979 1.01044 9.62674 1.26804 9.44618C4.8277 6.95106 8.64593 4.79928 12.6747 3.03906Z" fill="#0F172A"/>
<path d="M14.1491 16.7629C16.7913 15.3512 19.5671 14.1577 22.4528 13.2065C22.5983 14.7392 22.6911 16.2871 22.7296 17.8484C22.7378 18.1834 22.5396 18.4891 22.2304 18.6182C19.1416 19.9078 16.2037 21.4869 13.4505 23.3217C13.1776 23.5035 12.8222 23.5035 12.5493 23.3217C9.79611 21.4869 6.85817 19.9078 3.76944 18.6182C3.46022 18.4891 3.26197 18.1834 3.27022 17.8484C3.30869 16.287 3.40156 14.739 3.54701 13.2061C4.54476 13.535 5.52938 13.8928 6.49988 14.2786V15.6549C6.01416 15.9359 5.68738 16.461 5.68738 17.0625C5.68738 17.5991 5.94746 18.0749 6.34845 18.3709C6.25147 18.7832 6.10795 19.1867 5.91788 19.5731C6.4083 19.8046 6.89452 20.0435 7.3764 20.2897C7.65085 19.7315 7.84984 19.1456 7.97337 18.5474C8.54141 18.2942 8.93738 17.7246 8.93738 17.0625C8.93738 16.461 8.61059 15.9359 8.12488 15.6549V14.9564C9.39389 15.5109 10.637 16.1138 11.8518 16.7629C12.5695 17.1464 13.4314 17.1464 14.1491 16.7629Z" fill="#0F172A"/>
<path d="M4.83395 21.0842C5.28801 20.6301 5.64948 20.1187 5.91788 19.5731C6.4083 19.8046 6.89452 20.0435 7.3764 20.2897C7.0313 20.9915 6.56665 21.6495 5.983 22.2332C5.6657 22.5505 5.15125 22.5505 4.83395 22.2332C4.51665 21.9159 4.51665 21.4015 4.83395 21.0842Z" fill="#0F172A"/>
</svg>
