<svg width="26" height="26" viewBox="0 0 26 26" fill="none" xmlns="http://www.w3.org/2000/svg">
<path d="M4.875 6.90625C4.875 4.43823 6.87573 2.4375 9.34375 2.4375C11.8118 2.4375 13.8125 4.43823 13.8125 6.90625C13.8125 9.37427 11.8118 11.375 9.34375 11.375C6.87573 11.375 4.875 9.37427 4.875 6.90625Z" fill="#0F172A"/>
<path d="M15.4375 9.34375C15.4375 7.32446 17.0745 5.6875 19.0937 5.6875C21.113 5.6875 22.75 7.32446 22.75 9.34375C22.75 11.363 21.113 13 19.0937 13C17.0745 13 15.4375 11.363 15.4375 9.34375Z" fill="#0F172A"/>
<path d="M1.625 20.7188C1.625 16.4558 5.0808 13 9.34375 13C13.6067 13 17.0625 16.4558 17.0625 20.7188V20.7215C17.0625 20.7646 17.0621 20.808 17.0614 20.8508C17.0567 21.1309 16.9081 21.3888 16.6681 21.5333C14.5283 22.8216 12.0213 23.5625 9.34375 23.5625C6.66621 23.5625 4.15924 22.8216 2.0194 21.5333C1.77944 21.3888 1.63082 21.1309 1.62611 20.8508C1.62537 20.8069 1.625 20.7629 1.625 20.7188Z" fill="#0F172A"/>
<path d="M18.6873 20.7222C18.6873 20.7742 18.6869 20.8264 18.686 20.8782C18.6798 21.245 18.5913 21.5992 18.4336 21.9179C18.652 21.9309 18.872 21.9375 19.0936 21.9375C20.8223 21.9375 22.4597 21.537 23.9161 20.823C24.1837 20.6918 24.358 20.4247 24.3703 20.1269C24.3733 20.0537 24.3748 19.9801 24.3748 19.9062C24.3748 16.9895 22.0103 14.625 19.0936 14.625C18.2849 14.625 17.5187 14.8067 16.8336 15.1316C17.9979 16.69 18.6873 18.6238 18.6873 20.7188V20.7222Z" fill="#0F172A"/>
</svg>
