<svg width="26" height="26" viewBox="0 0 26 26" fill="none" xmlns="http://www.w3.org/2000/svg">
<path fill-rule="evenodd" clip-rule="evenodd" d="M15.8332 1.72783C16.1595 1.90977 16.3197 2.29082 16.2214 2.65128L14.0638 10.5625H21.9375C22.2611 10.5625 22.5538 10.7544 22.6827 11.0512C22.8116 11.3479 22.7523 11.6929 22.5315 11.9294L11.1565 24.1169C10.9016 24.39 10.4932 24.4541 10.1669 24.2722C9.84053 24.0902 9.68034 23.7092 9.77865 23.3487L11.9363 15.4375H4.06252C3.73898 15.4375 3.44628 15.2455 3.31734 14.9488C3.18839 14.6521 3.24778 14.3071 3.46854 14.0706L14.8435 1.88311C15.0985 1.60997 15.5068 1.5459 15.8332 1.72783Z" fill="#0F172A"/>
</svg>
