<svg width="26" height="26" viewBox="0 0 26 26" fill="none" xmlns="http://www.w3.org/2000/svg">
<path fill-rule="evenodd" clip-rule="evenodd" d="M13 2.4375C7.16649 2.4375 2.4375 7.16649 2.4375 13C2.4375 18.8335 7.16649 23.5625 13 23.5625C18.8335 23.5625 23.5625 18.8335 23.5625 13C23.5625 7.16649 18.8335 2.4375 13 2.4375ZM10.1562 8.9375C9.57052 8.9375 9.25897 9.39121 9.14227 9.62461C9.00126 9.90662 8.9375 10.2393 8.9375 10.5625C8.9375 10.8857 9.00126 11.2184 9.14227 11.5004C9.25897 11.7338 9.57052 12.1875 10.1562 12.1875C10.742 12.1875 11.0535 11.7338 11.1702 11.5004C11.3112 11.2184 11.375 10.8857 11.375 10.5625C11.375 10.2393 11.3112 9.90662 11.1702 9.62461C11.0535 9.39121 10.742 8.9375 10.1562 8.9375ZM14.8298 9.62461C14.9465 9.39121 15.258 8.9375 15.8438 8.9375C16.4295 8.9375 16.741 9.39121 16.8577 9.62461C16.9987 9.90662 17.0625 10.2393 17.0625 10.5625C17.0625 10.8857 16.9987 11.2184 16.8577 11.5004C16.741 11.7338 16.4295 12.1875 15.8438 12.1875C15.258 12.1875 14.9465 11.7338 14.8298 11.5004C14.6888 11.2184 14.625 10.8857 14.625 10.5625C14.625 10.2393 14.6888 9.90662 14.8298 9.62461ZM17.0217 17.0217C17.339 16.7044 17.339 16.1899 17.0217 15.8726C16.7044 15.5553 16.1899 15.5553 15.8726 15.8726C14.2861 17.4591 11.7139 17.4591 10.1274 15.8726C9.81008 15.5553 9.29563 15.5553 8.97833 15.8726C8.66103 16.1899 8.66103 16.7044 8.97833 17.0217C11.1994 19.2428 14.8006 19.2428 17.0217 17.0217Z" fill="#0F172A"/>
</svg>
