<svg width="26" height="26" viewBox="0 0 26 26" fill="none" xmlns="http://www.w3.org/2000/svg">
<path d="M13 0.8125C8.06395 0.8125 4.0625 4.81395 4.0625 9.75C4.0625 13.055 5.85684 15.94 8.52059 17.4855C9.26317 17.9163 9.72817 18.5774 9.74922 19.2428C9.76083 19.6098 10.0171 19.9233 10.3744 20.0078C10.7551 20.0978 11.143 20.1686 11.5371 20.2192C11.8876 20.2643 12.1877 19.9834 12.1877 19.63V14.5805C11.8418 14.5423 11.5029 14.4798 11.1727 14.3948C10.7381 14.283 10.4765 13.84 10.5883 13.4055C10.7002 12.9709 11.1432 12.7093 11.5777 12.8211C12.0314 12.9379 12.5079 13.0002 13.0002 13.0002C13.4925 13.0002 13.969 12.9379 14.4227 12.8211C14.8572 12.7093 15.3002 12.9709 15.4121 13.4055C15.5239 13.84 15.2623 14.283 14.8277 14.3948C14.4975 14.4798 14.1586 14.5423 13.8127 14.5805V19.6299C13.8127 19.9834 14.1128 20.2642 14.4634 20.2192C14.8573 20.1685 15.245 20.0977 15.6256 20.0078C15.9829 19.9233 16.2392 19.6098 16.2508 19.2428C16.2718 18.5774 16.7368 17.9163 17.4794 17.4855C20.1432 15.94 21.9375 13.055 21.9375 9.75C21.9375 4.81395 17.936 0.8125 13 0.8125Z" fill="#0F172A"/>
<path fill-rule="evenodd" clip-rule="evenodd" d="M9.76424 21.558C9.84787 21.1171 10.2731 20.8275 10.7139 20.9111C11.4538 21.0515 12.2179 21.125 13 21.125C13.7821 21.125 14.5462 21.0515 15.2861 20.9111C15.7269 20.8275 16.1521 21.1171 16.2358 21.558C16.3194 21.9988 16.0298 22.424 15.5889 22.5077C14.7497 22.6668 13.8842 22.75 13 22.75C12.1158 22.75 11.2503 22.6668 10.4111 22.5077C9.9702 22.424 9.68061 21.9988 9.76424 21.558Z" fill="#0F172A"/>
<path fill-rule="evenodd" clip-rule="evenodd" d="M10.5669 24.206C10.6136 23.7597 11.0132 23.4357 11.4595 23.4824C11.9655 23.5353 12.4795 23.5625 13 23.5625C13.5205 23.5625 14.0345 23.5353 14.5405 23.4824C14.9868 23.4357 15.3864 23.7597 15.4331 24.206C15.4798 24.6523 15.1558 25.0519 14.7095 25.0986C14.1475 25.1574 13.5771 25.1875 13 25.1875C12.4229 25.1875 11.8525 25.1574 11.2905 25.0986C10.8442 25.0519 10.5202 24.6523 10.5669 24.206Z" fill="#0F172A"/>
</svg>
