<svg width="26" height="26" viewBox="0 0 26 26" fill="none" xmlns="http://www.w3.org/2000/svg">
<path d="M12.5938 17.875C13.7156 17.875 14.625 16.9656 14.625 15.8438C14.625 14.7219 13.7156 13.8125 12.5938 13.8125C11.4719 13.8125 10.5625 14.7219 10.5625 15.8438C10.5625 16.9656 11.4719 17.875 12.5938 17.875Z" fill="#0F172A"/>
<path fill-rule="evenodd" clip-rule="evenodd" d="M6.09375 1.625H9.75C11.9937 1.625 13.8125 3.44384 13.8125 5.6875V7.71875C13.8125 8.84058 14.7219 9.75 15.8438 9.75H17.875C20.1187 9.75 21.9375 11.5688 21.9375 13.8125V22.3438C21.9375 23.4656 21.0281 24.375 19.9062 24.375H6.09375C4.97192 24.375 4.0625 23.4656 4.0625 22.3438V3.65625C4.0625 2.53442 4.97192 1.625 6.09375 1.625ZM12.5938 19.5C13.3092 19.5 13.9767 19.2945 14.5404 18.9393L15.6757 20.0745C15.993 20.3918 16.5074 20.3918 16.8247 20.0745C17.142 19.7572 17.142 19.2428 16.8247 18.9255L15.6894 17.7902C16.0445 17.2266 16.25 16.5591 16.25 15.8438C16.25 13.8245 14.613 12.1875 12.5938 12.1875C10.5745 12.1875 8.9375 13.8245 8.9375 15.8438C8.9375 17.863 10.5745 19.5 12.5938 19.5Z" fill="#0F172A"/>
<path d="M15.4375 5.6875C15.4375 4.26502 14.9153 2.96452 14.0521 1.96723C17.7343 2.92909 20.6334 5.8282 21.5953 9.51037C20.598 8.64721 19.2975 8.125 17.875 8.125H15.8438C15.6194 8.125 15.4375 7.94312 15.4375 7.71875V5.6875Z" fill="#0F172A"/>
</svg>
