<svg width="26" height="26" viewBox="0 0 26 26" fill="none" xmlns="http://www.w3.org/2000/svg">
<path fill-rule="evenodd" clip-rule="evenodd" d="M16.4877 6.79022C16.6485 6.3713 17.1185 6.16205 17.5374 6.32286L23.9738 8.79355C24.175 8.87078 24.3372 9.02476 24.4249 9.22162C24.5125 9.41847 24.5184 9.64209 24.4412 9.84326L21.9705 16.2796C21.8097 16.6986 21.3397 16.9078 20.9208 16.747C20.5018 16.5862 20.2926 16.1162 20.4534 15.6973L22.2211 11.0922L21.0441 11.6162C18.3864 12.7995 16.3622 14.8154 15.1396 17.2209C15.0217 17.4529 14.7998 17.6144 14.5428 17.6552C14.2858 17.696 14.0248 17.6113 13.8408 17.4273L9.75 13.3365L3.01202 20.0745C2.69472 20.3918 2.18028 20.3918 1.86298 20.0745C1.54567 19.7572 1.54567 19.2428 1.86298 18.9255L9.17548 11.613C9.32785 11.4606 9.53451 11.375 9.75 11.375C9.96549 11.375 10.1722 11.4606 10.3245 11.613L14.231 15.5195C15.64 13.2216 17.7353 11.3106 20.3831 10.1317L21.5602 9.60767L16.9551 7.83993C16.5362 7.67912 16.3269 7.20915 16.4877 6.79022Z" fill="#0F172A"/>
</svg>
