<svg width="26" height="26" viewBox="0 0 26 26" fill="none" xmlns="http://www.w3.org/2000/svg">
<path fill-rule="evenodd" clip-rule="evenodd" d="M5.59665 2.83981V3.76848C4.47553 3.92887 3.36609 4.12559 2.26955 4.35742C1.84323 4.44755 1.56392 4.85793 1.63645 5.28759C2.18944 8.56328 4.91849 11.0986 8.28658 11.3538C9.1377 12.0489 10.1493 12.5566 11.2575 12.8125C11.1505 14.0781 10.7212 15.2507 10.052 16.25H9.25262C8.13079 16.25 7.22137 17.1594 7.22137 18.2812V21.125H6.40875C5.06256 21.125 3.97125 22.2163 3.97125 23.5625C3.97125 24.0112 4.33502 24.375 4.78375 24.375H21.0338C21.4825 24.375 21.8463 24.0112 21.8463 23.5625C21.8463 22.2163 20.7549 21.125 19.4088 21.125H18.5964V18.2812C18.5964 17.1594 17.6869 16.25 16.5651 16.25H15.7651C15.0962 15.2509 14.6672 14.0782 14.5602 12.8127C15.6687 12.5567 16.6804 12.049 17.5317 11.3538C20.8998 11.0986 23.6289 8.56328 24.1818 5.28759C24.2544 4.85793 23.9751 4.44755 23.5487 4.35742C22.4522 4.12559 21.3428 3.92887 20.2216 3.76848V2.83981C20.2216 2.42995 19.9164 2.08427 19.5097 2.03355C17.347 1.76388 15.1441 1.625 12.9091 1.625C10.6742 1.625 8.47124 1.76388 6.30861 2.03355C5.9019 2.08427 5.59665 2.42995 5.59665 2.83981ZM5.59665 5.6875C5.59665 6.98337 5.93409 8.20078 6.52533 9.25626C5.05511 8.5981 3.91491 7.3339 3.42336 5.78161C4.14235 5.64228 4.86689 5.51847 5.59665 5.41058V5.6875ZM20.2216 5.6875V5.41058C20.9514 5.51847 21.6759 5.64228 22.3949 5.78161C21.9034 7.3339 20.7632 8.5981 19.293 9.25626C19.8842 8.20078 20.2216 6.98337 20.2216 5.6875Z" fill="#0F172A"/>
</svg>
