<svg width="26" height="26" viewBox="0 0 26 26" fill="none" xmlns="http://www.w3.org/2000/svg">
<path fill-rule="evenodd" clip-rule="evenodd" d="M8.8416 2.7958C9.41345 2.50988 10.0865 2.50988 10.6584 2.7958L16.0683 5.50076C16.1827 5.55795 16.3173 5.55795 16.4317 5.50076L20.6228 3.40518C21.9734 2.72989 23.5625 3.71199 23.5625 5.22198V18.7468C23.5625 19.5162 23.1278 20.2195 22.4397 20.5636L17.1584 23.2042C16.5865 23.4901 15.9135 23.4901 15.3416 23.2042L9.93168 20.4992C9.81731 20.4421 9.68269 20.4421 9.56832 20.4992L5.37715 22.5948C4.02657 23.2701 2.4375 22.288 2.4375 20.778V7.25324C2.4375 6.48385 2.87219 5.78051 3.56035 5.43643L8.8416 2.7958ZM9.75 6.5C10.1987 6.5 10.5625 6.86376 10.5625 7.3125V16.25C10.5625 16.6987 10.1987 17.0625 9.75 17.0625C9.30127 17.0625 8.9375 16.6987 8.9375 16.25V7.3125C8.9375 6.86376 9.30127 6.5 9.75 6.5ZM17.0625 9.75C17.0625 9.30126 16.6987 8.9375 16.25 8.9375C15.8013 8.9375 15.4375 9.30126 15.4375 9.75V18.6875C15.4375 19.1362 15.8013 19.5 16.25 19.5C16.6987 19.5 17.0625 19.1362 17.0625 18.6875V9.75Z" fill="#0F172A"/>
</svg>
