<svg width="26" height="26" viewBox="0 0 26 26" fill="none" xmlns="http://www.w3.org/2000/svg">
<path d="M12.4255 4.16107C12.7428 3.84377 13.2572 3.84377 13.5745 4.16107L22.988 13.5745C23.3053 13.8918 23.8197 13.8918 24.137 13.5745C24.4543 13.2572 24.4543 12.7428 24.137 12.4255L14.7236 3.01202C13.7717 2.06012 12.2283 2.06012 11.2764 3.01202L1.86298 12.4255C1.54567 12.7428 1.54567 13.2572 1.86298 13.5745C2.18028 13.8918 2.69472 13.8918 3.01202 13.5745L12.4255 4.16107Z" fill="#0F172A"/>
<path d="M13 5.88465L21.8389 14.7236C21.8711 14.7558 21.904 14.7869 21.9375 14.8169V21.5312C21.9375 22.6531 21.0281 23.5625 19.9062 23.5625H16.25C15.8013 23.5625 15.4375 23.1987 15.4375 22.75V17.875C15.4375 17.4263 15.0737 17.0625 14.625 17.0625H11.375C10.9263 17.0625 10.5625 17.4263 10.5625 17.875V22.75C10.5625 23.1987 10.1987 23.5625 9.75 23.5625H6.09375C4.97192 23.5625 4.0625 22.6531 4.0625 21.5312V14.8169C4.096 14.7869 4.12888 14.7558 4.16107 14.7236L13 5.88465Z" fill="#0F172A"/>
</svg>
