<svg width="45" height="45" viewBox="0 0 45 45" fill="none" xmlns="http://www.w3.org/2000/svg">
<path d="M22.5 33.75V23.9063M22.5 23.9063C23.4712 23.9063 24.4136 23.7833 25.3125 23.5519M22.5 23.9063C21.5288 23.9063 20.5864 23.7833 19.6875 23.5519M26.7188 37.5739C25.3522 37.8332 23.942 37.9688 22.5 37.9688C21.0581 37.9688 19.6478 37.8332 18.2812 37.5739M25.3125 42.0412C24.3882 42.1379 23.4499 42.1875 22.5 42.1875C21.5501 42.1875 20.6118 42.1379 19.6875 42.0412M26.7188 33.75V33.3906C26.7188 31.5477 27.953 29.9719 29.5471 29.047C33.7416 26.6133 36.5625 22.0736 36.5625 16.875C36.5625 9.1085 30.2665 2.8125 22.5 2.8125C14.7335 2.8125 8.4375 9.1085 8.4375 16.875C8.4375 22.0736 11.2584 26.6133 15.4529 29.047C17.047 29.9719 18.2813 31.5477 18.2813 33.3906V33.75" stroke="#0F172A" stroke-width="1.5" stroke-linecap="round" stroke-linejoin="round"/>
</svg>
