<svg width="45" height="45" viewBox="0 0 45 45" fill="none" xmlns="http://www.w3.org/2000/svg">
<path d="M28.4662 28.4662C25.1712 31.7613 19.8288 31.7613 16.5338 28.4662M39.375 22.5C39.375 31.8198 31.8198 39.375 22.5 39.375C13.1802 39.375 5.625 31.8198 5.625 22.5C5.625 13.1802 13.1802 5.625 22.5 5.625C31.8198 5.625 39.375 13.1802 39.375 22.5ZM18.2812 18.2812C18.2812 19.0579 17.9665 19.6875 17.5781 19.6875C17.1898 19.6875 16.875 19.0579 16.875 18.2812C16.875 17.5046 17.1898 16.875 17.5781 16.875C17.9665 16.875 18.2812 17.5046 18.2812 18.2812ZM17.5781 18.2812H17.5922V18.3094H17.5781V18.2812ZM28.125 18.2812C28.125 19.0579 27.8102 19.6875 27.4219 19.6875C27.0335 19.6875 26.7188 19.0579 26.7188 18.2812C26.7188 17.5046 27.0335 16.875 27.4219 16.875C27.8102 16.875 28.125 17.5046 28.125 18.2812ZM27.4219 18.2812H27.4359V18.3094H27.4219V18.2812Z" stroke="#0F172A" stroke-width="1.5" stroke-linecap="round" stroke-linejoin="round"/>
</svg>
