<svg width="45" height="45" viewBox="0 0 45 45" fill="none" xmlns="http://www.w3.org/2000/svg">
<path d="M36.5625 26.7188V21.7969C36.5625 18.3019 33.7293 15.4688 30.2344 15.4688H27.4219C26.2569 15.4688 25.3125 14.5244 25.3125 13.3594V10.5469C25.3125 7.05195 22.4793 4.21875 18.9844 4.21875H15.4688M25.2772 29.4959L28.125 32.3438M19.6875 4.21875H10.5469C9.3819 4.21875 8.4375 5.16315 8.4375 6.32812V37.2656C8.4375 38.4306 9.3819 39.375 10.5469 39.375H34.4531C35.6181 39.375 36.5625 38.4306 36.5625 37.2656V21.0938C36.5625 11.7739 29.0073 4.21875 19.6875 4.21875ZM26.7188 26.0156C26.7188 28.7339 24.5152 30.9375 21.7969 30.9375C19.0786 30.9375 16.875 28.7339 16.875 26.0156C16.875 23.2973 19.0786 21.0938 21.7969 21.0938C24.5152 21.0938 26.7188 23.2973 26.7188 26.0156Z" stroke="#0F172A" stroke-width="1.5" stroke-linecap="round" stroke-linejoin="round"/>
</svg>
