<svg width="26" height="26" viewBox="0 0 26 26" fill="none" xmlns="http://www.w3.org/2000/svg">
<path d="M11.375 2.03125C11.375 1.35815 11.9207 0.8125 12.5938 0.8125C13.2668 0.8125 13.8125 1.35815 13.8125 2.03125V10.935C14.3731 11.1107 14.9183 11.3486 15.4375 11.6487V3.65625C15.4375 2.98315 15.9832 2.4375 16.6562 2.4375C17.3293 2.4375 17.875 2.98315 17.875 3.65625V15.5049C16.339 15.7626 15.0465 16.7386 14.3548 18.0756C15.66 17.4271 17.1312 17.0625 18.6875 17.0625C19.1362 17.0625 19.5 16.6987 19.5 16.25V13.8125L19.5 13.7948C19.5045 12.8668 19.8617 11.9363 20.5709 11.2271C21.0468 10.7512 21.8185 10.7512 22.2945 11.2271C22.7704 11.7031 22.7704 12.4748 22.2945 12.9507C22.0577 13.1874 21.939 13.4948 21.9375 13.8065L21.9375 13.8125L21.9375 17.0625H21.9325C21.8685 18.6938 21.1925 20.245 20.0337 21.4038L18.1538 23.2837C16.9348 24.5027 15.2815 25.1875 13.5576 25.1875H11.375C6.88769 25.1875 3.25 21.5498 3.25 17.0625V6.90625C3.25 6.23315 3.79565 5.6875 4.46875 5.6875C5.14185 5.6875 5.6875 6.23315 5.6875 6.90625V12.8851C6.18668 12.3956 6.73335 11.9835 7.3125 11.6487V3.65625C7.3125 2.98315 7.85815 2.4375 8.53125 2.4375C9.20435 2.4375 9.75 2.98315 9.75 3.65625V10.7258C10.2858 10.6169 10.8304 10.5625 11.375 10.5625V2.03125Z" fill="#0F172A"/>
</svg>
