<svg width="45" height="45" viewBox="0 0 45 45" fill="none" xmlns="http://www.w3.org/2000/svg">
<path d="M16.875 12.6562V28.125M28.125 16.875V32.3437M29.0683 38.9033L38.209 34.333C38.9236 33.9757 39.375 33.2453 39.375 32.4463V9.03802C39.375 7.46995 37.7248 6.45008 36.3223 7.15134L29.0683 10.7783C28.4745 11.0752 27.7755 11.0752 27.1817 10.7783L17.8183 6.09666C17.2245 5.79973 16.5255 5.79973 15.9317 6.09665L6.79103 10.667C6.07641 11.0243 5.625 11.7547 5.625 12.5537V35.9619C5.625 37.53 7.27519 38.5499 8.67772 37.8486L15.9317 34.2217C16.5255 33.9247 17.2245 33.9247 17.8183 34.2217L27.1817 38.9033C27.7755 39.2002 28.4745 39.2002 29.0683 38.9033Z" stroke="#0F172A" stroke-width="1.5" stroke-linecap="round" stroke-linejoin="round"/>
</svg>
