<svg width="36" height="36" viewBox="0 0 36 36" fill="none" xmlns="http://www.w3.org/2000/svg">
<path d="M26.9723 28.0872C24.9182 25.3762 21.6636 23.625 18 23.625C14.3364 23.625 11.0818 25.3762 9.02769 28.0872M26.9723 28.0872C29.7502 25.6145 31.5 22.0116 31.5 18C31.5 10.5442 25.4558 4.5 18 4.5C10.5442 4.5 4.5 10.5442 4.5 18C4.5 22.0116 6.24975 25.6145 9.02769 28.0872M26.9723 28.0872C24.5872 30.2102 21.4442 31.5 18 31.5C14.5558 31.5 11.4128 30.2102 9.02769 28.0872M22.5 14.625C22.5 17.1103 20.4853 19.125 18 19.125C15.5147 19.125 13.5 17.1103 13.5 14.625C13.5 12.1397 15.5147 10.125 18 10.125C20.4853 10.125 22.5 12.1397 22.5 14.625Z" stroke="#0F172A" stroke-width="1.5" stroke-linecap="round" stroke-linejoin="round"/>
</svg>
