<svg width="45" height="45" viewBox="0 0 45 45" fill="none" xmlns="http://www.w3.org/2000/svg">
<path d="M33.7154 35.109C31.1477 31.7203 27.0795 29.5312 22.5 29.5312C17.9205 29.5312 13.8523 31.7203 11.2846 35.109M33.7154 35.109C37.1878 32.0181 39.375 27.5145 39.375 22.5C39.375 13.1802 31.8198 5.625 22.5 5.625C13.1802 5.625 5.625 13.1802 5.625 22.5C5.625 27.5145 7.81219 32.0181 11.2846 35.109M33.7154 35.109C30.7341 37.7627 26.8053 39.375 22.5 39.375C18.1947 39.375 14.2659 37.7627 11.2846 35.109M28.125 18.2812C28.125 21.3879 25.6066 23.9062 22.5 23.9062C19.3934 23.9062 16.875 21.3879 16.875 18.2812C16.875 15.1746 19.3934 12.6562 22.5 12.6562C25.6066 12.6562 28.125 15.1746 28.125 18.2812Z" stroke="white" stroke-width="1.5" stroke-linecap="round" stroke-linejoin="round"/>
</svg>
